<?xml version="1.0" encoding="utf-8"?>
<!DOCTYPE svg PUBLIC "-//W3C//DTD SVG 1.1//EN" "http://www.w3.org/Graphics/SVG/1.1/DTD/svg11.dtd">
<svg viewBox="0 0 800 800" preserveAspectRatio="xMinYMin meet" xmlns="http://www.w3.org/2000/svg" version="1.1">
<g fill="none" stroke="black" stroke-linecap="round" stroke-linejoin="round" stroke-width="1.8481">
<g transform="translate(87.52,135.4065) scale(1.6233) translate(0,-60)">
<path id="0" d="M167 268 C167 268 169.3665 263.4813 172 262 C175.9896 259.7559 177.6387 259.2365 183 259 C210.4512 257.7889 216.727 256.0078 240 259 C245.7803 259.7432 247.6027 262.8186 253 268 C259.5845 274.3211 265 283 265 283 "/>
<path id="1" d="M171 264 C171 264 156.0157 299.1415 149 333 C144.9744 352.4277 146.294 356.9169 148 375 C148.4708 379.991 151.6471 385.2605 154 386 C161.2152 388.2676 172.6028 390.1283 183 386 C200.8261 378.922 205.9707 374.266 222 359 C235.7293 345.9245 235.8428 342.9286 246 326 C251.8714 316.2143 249.7558 314.4885 255 304 C260.64 292.72 268 282 268 282 "/>
<path id="2" d="M168 272 C168 272 160.9498 264.5774 153 261 C132.199 251.6395 129.7177 254.1277 108 245 C95.629 239.8006 95.7243 238.9193 84 232 C65.2787 220.9514 64.6471 221.4706 47 209 C27.3822 195.1368 9 179 9 179 "/>
<path id="3" d="M265 285 C265 285 303.1521 288.1837 337 286 C347.0936 285.3488 348.4805 283.6377 358 279 C367.2995 274.4695 376 267 376 267 "/>
<path id="4" d="M9 179 C9 179 15.6548 175.6508 22 175 C34.3021 173.7382 48 175 48 175 "/>
<path id="5" d="M10 180 C10 180 18.6213 174.539 27 173 C41.8311 170.2759 43.033 171.0854 59 171 C136.3115 170.5866 214 172 214 172 "/>
<path id="6" d="M204 173 C204 173 233.5843 170.2715 261 174 C294.6727 178.5795 329 190 329 190 "/>
<path id="7" d="M204 172 L208 170 "/>
</g>
</g>
</svg>
