<?xml version="1.0" encoding="utf-8"?>
<!DOCTYPE svg PUBLIC "-//W3C//DTD SVG 1.1//EN" "http://www.w3.org/Graphics/SVG/1.1/DTD/svg11.dtd">
<svg viewBox="0 0 800 800" preserveAspectRatio="xMinYMin meet" xmlns="http://www.w3.org/2000/svg" version="1.1">
<g fill="none" stroke="black" stroke-linecap="round" stroke-linejoin="round" stroke-width="0.96966">
<g transform="translate(124.6463,87.52) scale(3.0939) translate(-187,-154)">
<path id="0" d="M307 191 C307 191 301.2175 190.3347 299 191 C298.1962 191.2412 297 192.8176 297 194 C297 202.277 297.4556 212.6835 299 215 C299.5532 215.8298 307.5446 216.5549 311 215 C314.4698 213.4386 317.4703 210.0156 319 206 C320.5237 202.0003 320.0285 198.1142 319 194 C318.5714 192.2858 316.5546 190.2743 315 190 C310.7637 189.2524 302 191 302 191 "/>
<path id="1" d="M304 191 C304 191 302.8625 180.5999 305 173 C306.9 166.2445 308.5442 165.0471 313 159 C315.11 156.1364 316.3033 154.8989 319 154 C322.1657 152.9448 323.9972 153.2495 328 154 C331.3635 154.6306 332.8477 155.0434 335 157 C337.2931 159.0846 338.5428 160.7083 339 164 C340.7632 176.6948 341.4869 184.5745 340 193 C339.6784 194.8227 336.198 197.1584 333 198 C328.3851 199.2144 321 198 321 198 C321 198 334.7486 196.9499 347 198 C351.362 198.3739 354.1976 198.9401 356 201 C358.8798 204.2911 359.6901 207.7122 361 214 C362.0262 218.9257 362.1638 221.0432 361 225 C360.2096 227.6872 358.2539 230.356 356 231 C348.0873 233.2608 342.8166 234.0907 333 233 C327.1101 232.3456 324.5516 231.0054 320 227 C313.5063 221.2855 308 211 308 211 "/>
<path id="2" d="M309 212 C309 212 312.2988 213.9965 313 216 C315.2141 222.3259 315.1795 224.0688 316 232 C316.6539 238.3215 317.4981 240.0778 316 245 C314.6022 249.5929 311.689 253.6555 309 255 C306.6471 256.1764 300.6358 255.8035 298 254 C294.3431 251.4979 292.1002 247.5131 290 242 C288.7438 238.7026 289.0695 237.0324 290 233 C291.9009 224.7629 296 216 296 216 "/>
<path id="3" d="M295 216 C295 216 290.6746 221.7003 286 225 C282.9194 227.1745 281.8731 227.419 278 228 C272.4997 228.825 269.4409 229.7893 266 228 C260.334 225.0537 256.4314 220.543 253 215 C251.6958 212.8932 251.8299 209.7789 253 207 C255.1015 202.009 257.6449 197.2726 261 196 C266.7882 193.8045 273.1796 193.9109 282 196 C290.0357 197.9032 299 205 299 205 "/>
<path id="4" d="M299 205 C299 205 281.6115 193.8849 276 185 C272.9718 180.2054 273.5618 171.9309 275 167 C275.6768 164.6796 279.5665 161.7464 283 161 C288.4551 159.8141 293.1622 160.6562 298 162 C299.3018 162.3616 300.6365 164.1097 301 166 C302.7779 175.2452 303 188 303 188 "/>
<path id="5" d="M290 224 C290 224 287.8865 233.551 284 242 C276.5452 258.2061 269.2331 259.0248 267 274 C261.6976 309.5571 267 356 267 356 "/>
<path id="6" d="M288 247 C288 247 271.9431 265.5806 269 282 C263.5591 312.3543 269 353 269 353 "/>
<path id="7" d="M268 301 C268 301 279.0884 292.5581 290 289 C300.5179 285.5702 302.8868 286 314 286 C319.0935 286 320.6781 286.4789 325 289 C331.5817 292.8393 331.5783 297.5919 338 300 C348.6872 304.0077 365 304 365 304 "/>
<path id="8" d="M285 290 C285 290 288.7595 296.2437 293 299 C297.4702 301.9056 299.2006 302.6 305 303 C326.7315 304.4987 330.3971 302.1759 351 303 C352.8274 303.0731 355 305 355 305 "/>
<path id="9" d="M290 292 L325 297 "/>
<path id="10" d="M264 279 C264 279 264.5622 272.9508 263 270 C260.9942 266.2114 259.3326 265.0328 255 262 C249.8391 258.3874 248.523 256.5311 243 256 C225.4767 254.3151 219.8743 259.4106 203 257 C195.6818 255.9545 187.204 247.9126 187 248 C186.9256 248.0319 186.5567 260.5567 189 263 C193.7429 267.7429 200.9696 270.3097 212 273 C219.8048 274.9036 221.7483 274.4146 230 273 C238.2648 271.5832 238.9566 268.2973 247 267 C253.195 266.0008 261 268 261 268 "/>
</g>
</g>
</svg>
