<?xml version="1.0" encoding="utf-8"?>
<!DOCTYPE svg PUBLIC "-//W3C//DTD SVG 1.1//EN" "http://www.w3.org/Graphics/SVG/1.1/DTD/svg11.dtd">
<svg viewBox="0 0 800 800" preserveAspectRatio="xMinYMin meet" xmlns="http://www.w3.org/2000/svg" version="1.1">
<g fill="none" stroke="black" stroke-linecap="round" stroke-linejoin="round" stroke-width="0.96966">
<g transform="translate(124.6463,87.52) scale(3.0939) translate(-187,-154)">
<path id="0" d="M307 191 C307 191 301.2175 190.3347 299 191 C298.1962 191.2412 297 192.8176 297 194 C297 202.277 297.4556 212.6835 299 215 C299.5532 215.8298 307.5446 216.5549 311 215 C314.4698 213.4386 317.4703 210.0156 319 206 C320.5237 202.0003 320.0285 198.1142 319 194 C318.5714 192.2858 316.5546 190.2743 315 190 C310.7637 189.2524 302 191 302 191 "/>
<path id="1" d="M304 191 C304 191 302.8625 180.5999 305 173 C306.9 166.2445 308.5442 165.0471 313 159 C315.11 156.1364 316.3033 154.8989 319 154 C322.1657 152.9448 323.9972 153.2495 328 154 C331.3635 154.6306 332.8477 155.0434 335 157 C337.2931 159.0846 338.5428 160.7083 339 164 C340.7632 176.6948 341.4869 184.5745 340 193 C339.6784 194.8227 336.198 197.1584 333 198 C328.3851 199.2144 321 198 321 198 C321 198 334.7486 196.9499 347 198 C351.362 198.3739 354.1976 198.9401 356 201 C358.8798 204.2911 359.6901 207.7122 361 214 C362.0262 218.9257 362.1638 221.0432 361 225 C360.2096 227.6872 358.2539 230.356 356 231 C348.0873 233.2608 342.8166 234.0907 333 233 C327.1101 232.3456 324.5516 231.0054 320 227 C313.5063 221.2855 308 211 308 211 "/>
</g>
</g>
</svg>
