<?xml version="1.0" encoding="utf-8"?>
<!DOCTYPE svg PUBLIC "-//W3C//DTD SVG 1.1//EN" "http://www.w3.org/Graphics/SVG/1.1/DTD/svg11.dtd">
<svg viewBox="0 0 800 800" preserveAspectRatio="xMinYMin meet" xmlns="http://www.w3.org/2000/svg" version="1.1">
<g fill="none" stroke="black" stroke-linecap="round" stroke-linejoin="round" stroke-width="1.8481">
<g transform="translate(87.52,91.5782) scale(1.6233) translate(-75,-98)">
<path id="0" d="M75 164 L116 144 "/>
<path id="1" d="M80 165 C80 165 76.1848 166.2608 76 167 C75.1376 170.4496 74.5806 177.1474 76 181 C76.7684 183.0856 79.5882 184.7206 83 186 C86.604 187.3515 92 187 92 187 "/>
<path id="2" d="M88 174 C88 174 86 174 86 174 C86 174.1528 87.1741 177.6329 88 178 C89.5303 178.6801 94.3404 178.3769 95 178 C95.2154 177.8769 95.24 174.32 95 174 C94.865 173.82 92 174 92 174 "/>
<path id="3" d="M114 147 C114 147 117.1505 147.7927 119 147 C126.3453 143.852 129.7311 143.7205 135 138 C145.3216 126.7937 144.065 121.4187 154 109 C156.967 105.2912 158.3189 105.0597 163 103 C170.3193 99.7795 171.1802 99.0567 179 98 C188.8476 96.6692 193.3406 95.196 200 98 C207.5273 101.1694 210.6901 105.353 217 114 C223.2859 122.614 223.0866 124.3779 227 135 C229.9288 142.9496 230.3017 143.6204 231 152 C232.2489 166.9866 228.975 168.8253 231 183 C232.2411 191.6877 236.4769 192.2965 238 201 C239.743 210.9597 236.7078 213.9545 238 223 C238.386 225.7019 241.1473 226.2287 242 229 C242.8255 231.6829 242.7251 235.2749 242 236 C240.6535 237.3465 236.6551 239 232 239 C215.7072 239 200.9853 239.6937 197 236 C192.9452 232.2419 192.5109 218.375 191 201 C189.5539 184.3693 191 167 191 167 "/>
<path id="4" d="M96 190 L115 190 "/>
<path id="5" d="M100 199 C100 199 103.6552 199.9018 106 199 C115.319 195.4158 115.784 192.7755 126 189 C138.3248 184.4452 152 182 152 182 "/>
<path id="6" d="M91 195 C91 195 99.4272 201.683 107 203 C120.0631 205.2718 122.6974 204.4899 137 203 C145.8298 202.0802 155 198 155 198 "/>
<path id="7" d="M111 195 L95 195 "/>
<path id="8" d="M97 196 C97 196 100.3623 191.3058 104 190 C117.858 185.0254 136 182 136 182 "/>
<path id="9" d="M155 200 C155 200 160.9665 217.2233 163 234 C164.8608 249.3519 163 266 163 266 "/>
<path id="10" d="M235 174 C235 174 260.714 183.7465 280 199 C313.9542 225.8547 315.8874 228.1769 345 261 C365.8803 284.5415 365.9135 286.7103 382 314 C393.4396 333.4065 398.1572 351.5653 401 356 C401.0444 356.0693 405.3145 355.0685 407 353 C414.913 343.2886 415.8986 341.4275 423 329 C437.7844 303.1272 439.0529 302.8002 451 276 C457.2055 262.0797 456.8658 260.6265 460 246 C461.178 240.5028 460 234 460 234 C460 234 461.398 257.6318 460 280 C459.4454 288.8743 458.945 289.4454 456 298 C448.5751 319.5675 448.7991 320.511 439 341 C432.5506 354.4851 426.4605 354.4327 423 367 C418.0121 385.1141 422.4239 389.8009 420 410 C419.5886 413.4286 419.2166 414.9539 417 417 C407.9353 425.3674 405.5953 428.3312 394 434 C384.9476 438.4256 382.8632 437.6421 372 439 C363.3575 440.0803 354 439 354 439 "/>
<path id="11" d="M163 238 C163 238 164.6634 262.7119 163 286 C162.2252 296.847 162.1142 297.9014 158 308 C140.5605 350.8061 140.7012 358.6104 119 394 C111.9035 405.5728 101.4849 404.9091 93 414 C90.7254 416.437 90.7725 421.0426 91 424 C91.0746 424.9704 93.609 425.6966 94 427 C94.7018 429.3394 93.4306 433.5729 94 434 C95.4643 435.0982 102.4698 436.623 106 436 C107.7829 435.6854 108.6077 432.0253 111 431 C114.1578 429.6466 117.8713 431.2417 120 430 C121.4438 429.1578 121.6871 424.5106 123 424 C126.7883 422.5268 137.4366 424.0141 138 423 C139.5694 420.1751 136.6448 409.4675 138 397 C139.0708 387.149 139.1068 385.8679 143 377 C147.6847 366.3293 150.325 366.8492 156 356 C167.2243 334.5418 177 312 177 312 "/>
<path id="12" d="M195 314 C195 314 195.846 317.308 195 319 C191.193 326.614 188.2962 327.1008 184 336 C174.5245 355.6277 173.5012 356.3658 167 377 C162.2471 392.0854 162.6994 393.139 161 409 C159.7506 420.6615 163.3666 424.9534 161 433 C159.7239 437.3388 155.4483 441.7454 151 443 C140.8401 445.8656 125.0496 444.9464 122 444 C121.6701 443.8976 121.0138 434.9205 122 434 C123.9795 432.1525 133.1809 432.5461 137 430 C138.8015 428.799 140 422 140 422 "/>
<path id="13" d="M177 362 C177 362 176.1151 365.6402 177 368 C180.1525 376.4068 180.498 378.0527 186 386 C193.598 396.9748 194.2903 397.533 204 407 C213.981 416.7315 214.5741 416.9183 226 425 C234.8101 431.2315 235.3534 432.3251 245 436 C255.3597 439.9466 268 441 268 441 "/>
<path id="14" d="M327 362 C327 362 319.1617 360.9964 317 363 C304.0826 374.9722 299.0689 381.05 286 400 C279.9094 408.8314 278.8556 410.794 277 421 C274.1979 436.4114 279.009 450.6536 276 455 C274.0051 457.8815 262.926 458.9928 250 460 C224.9814 461.9495 205.6122 460.611 199 461 C198.9848 461.0009 198.6324 462.5536 199 463 C203.8763 468.9213 206.9427 474.755 213 478 C216.8484 480.0616 224.7467 478.7511 227 478 C227.4292 477.8569 227.68 473.0434 228 473 C239.1391 471.4896 257.6095 473.0418 286 470 C298.9696 468.6104 299.1707 465.7495 312 464 C320.6109 462.8258 321.8385 465.5441 330 464 C339.2154 462.2565 341.6648 462.0782 349 457 C359.4113 449.7922 369 437 369 437 "/>
<path id="15" d="M247 438 C247 438 241.6994 436.466 237 437 C220.5144 438.8734 208.6033 441.1872 203 443 C202.7478 443.0816 202.2582 446.7637 203 448 C204.2759 450.1264 205.9178 451.7022 209 453 C214.4239 455.2838 215.5829 455.1979 222 456 C227.2776 456.6597 227.8843 456.9135 233 456 C241.3212 454.5141 250 451 250 451 "/>
<path id="16" d="M158 128 C158 128 155.2895 127.7105 155 128 C154.5175 128.4825 153.8924 131.8924 154 132 C154.1793 132.1793 159 132 159 132 "/>
<path id="17" d="M175 135 C175 135 172.8611 143.3751 173 144 C173.0144 144.0649 176.3631 144.3822 177 144 C177.4459 143.7325 178 141 178 141 "/>
<path id="18" d="M122 186 L137 186 "/>
<path id="19" d="M96 172 C96 172 94.125 171.875 94 172 C93.875 172.125 93.9694 173.9847 94 174 C94.0458 174.0229 95.8229 173.4722 96 173 C96.7463 171.0098 97.2192 166.5116 97 166 C96.9428 165.8665 93 166 93 166 "/>
<path id="20" d="M147 160 C147 160 143.3448 159.0982 141 160 C131.681 163.5842 121 170 121 170 "/>
</g>
</g>
</svg>
