<?xml version="1.0" encoding="utf-8"?>
<!DOCTYPE svg PUBLIC "-//W3C//DTD SVG 1.1//EN" "http://www.w3.org/Graphics/SVG/1.1/DTD/svg11.dtd">
<svg viewBox="0 0 800 800" preserveAspectRatio="xMinYMin meet" xmlns="http://www.w3.org/2000/svg" version="1.1">
<g fill="none" stroke="black" stroke-linecap="round" stroke-linejoin="round" stroke-width="1.4929">
<g transform="translate(87.52,137.7579) scale(2.0095) translate(-100,-102.2167)">
<path id="0" d="M108 337.2167 C108 337.2167 113.9658 333.0577 118 328.2167 C121.0645 324.5393 119.7849 322.1522 123 319.2167 C130.0436 312.7856 132.7172 313.7858 141 307.2167 C146.937 302.508 146.1232 300.3794 152 296.2167 C157.3947 292.3954 159.5992 294.2358 165 290.2167 C180.2602 278.8602 187.3388 272.6704 195 264.2167 C195.7337 263.4071 195.2937 260.2649 194 258.2167 C190.1088 252.0555 185.8188 251.324 183 245.2167 C180.9009 240.6687 181.3614 232.9714 182 232.2167 C182.5335 231.5861 190.2316 230.7093 194 232.2167 C197.5172 233.6235 199.4651 236.0686 202 240.2167 C204.3273 244.025 203.8224 248.5344 205 250.2167 C205.2725 250.6059 208.3817 250.8776 209 250.2167 C217.9864 240.6105 220.2353 232.7481 234 219.2167 C249.0222 204.4491 251.2015 204.2156 268 192.2167 C271.1976 189.9327 273.7443 191.2988 276 189.2167 C278.7874 186.6437 278.6228 182.8579 281 180.2167 C281.81 179.3167 283.9163 180.2402 285 179.2167 C291.3804 173.1907 292.1949 169.3413 299 163.2167 C300.869 161.5346 303.687 162.3421 305 161.2167 C305.7538 160.5706 304.9875 158.2292 306 157.2167 C311.8725 151.3442 313.4037 148.1434 322 144.2167 C351.7655 130.6201 359.9052 131.3733 387 120.2167 C388.6815 119.5243 388.4525 116.9904 390 116.2167 C393.095 114.6692 395.9604 116.243 399 114.2167 C404.883 110.2946 410.9972 102.2171 411 102.2167 C411.0016 102.2164 405.7745 108.0166 405 113.2167 C402.6461 129.0216 405.6118 131.4873 404 149.2167 C402.64 164.1772 404.6826 171.4405 399 179.2167 C391.2132 189.8723 381.6694 189.3959 366 201.2167 C353.4124 210.7126 354.661 213.0087 342 222.2167 C327.5513 232.7248 325.1654 230.7466 311 241.2167 C302.7961 247.2804 304.1886 250.5626 296 256.2167 C284.1592 264.3924 280.186 262.9999 269 270.2167 C266.5565 271.7931 267.1475 274.4986 265 276.2167 C263.1453 277.7004 261.0389 276.6147 259 278.2167 C254.9414 281.4055 253.372 283.3622 251 287.2167 C250.3185 288.324 250.7342 289.3559 251 291.2167 C251.2089 292.6786 251.2798 293.6765 252 294.2167 C254.0499 295.7541 257.8736 295.5896 259 297.2167 C260.6344 299.5774 261.5426 306.5754 261 307.2167 C260.0856 308.2973 251.1117 311.5216 248 310.2167 C241.4518 307.4706 231.7513 293.5952 230 294.2167 C221.8305 297.1155 208.3948 315.7704 186 332.2167 C177.7126 338.3027 175.1746 335.7119 166 341.2167 C150.6126 350.4491 150.2064 353.2869 136 362.2167 C134.149 363.3801 133.472 363.0712 131 363.2167 C125.1362 363.5616 122.5507 364.5975 119 363.2167 C116.4192 362.213 116.348 358.5074 113 356.2167 C107.6922 352.585 102.2682 352.6593 100 350.2167 C98.9959 349.1353 98.8621 343.5063 100 342.2167 C103.1628 338.6322 115 333.2167 115 333.2167 "/>
<path id="1" d="M198 262.2167 C198 262.2167 200.1022 268.9645 204 273.2167 C215.7524 286.0374 231 298.2167 231 298.2167 "/>
<path id="2" d="M208 252.2167 C208 252.2167 210.8351 260.3858 215 266.2167 C217.7871 270.1185 219.5386 271.1975 223 273.2167 C224.1459 273.8851 225.6574 272.5454 227 273.2167 C232.3703 275.9018 235.0392 277.5606 239 281.2167 C239.9588 282.1017 239.2587 284.7605 240 285.2167 C243.0969 287.1225 252 289.2167 252 289.2167 "/>
<path id="3" d="M403 174.2167 C403 174.2167 389.0813 174.3574 385 175.2167 C384.6343 175.2936 384.7966 177.6039 384 178.2167 C379.8134 181.4371 378.0242 183.2734 372 185.2167 C363.5634 187.9382 359.5667 185.0465 353 188.2167 C348.0833 190.5903 348.5342 194.8684 343 199.2167 C335.091 205.4309 331.9384 204.5999 325 210.2167 C322.9737 211.857 324.0045 214.2121 322 216.2167 C317.7682 220.4485 315.6518 219.5648 311 224.2167 C295.5755 239.6412 296.8462 242.2846 281 257.2167 C271.3835 266.2783 270.31 266.1861 259 273.2167 C252.1489 277.4754 248.8359 276.1061 244 280.2167 C240.8838 282.8655 239 290.2167 239 290.2167 "/>
<path id="4" d="M114 336.2167 C114 336.2167 124.8223 343.8843 135 346.2167 C146.8982 348.9433 162 347.2167 162 347.2167 "/>
<path id="5" d="M146 307.2167 C146 307.2167 148.3173 310.9871 151 312.2167 C159.0021 315.8843 161.446 314.6525 170 318.2167 C172.6524 319.3218 172.67 321.7507 175 322.2167 C185.2037 324.2574 200 324.2167 200 324.2167 "/>
<path id="6" d="M179 284.2167 C179 284.2167 191.6732 292.0745 204 295.2167 C215.753 298.2125 230 297.2167 230 297.2167 "/>
</g>
</g>
</svg>
